<svg xmlns="http://www.w3.org/2000/svg" width="35" height="60" viewBox="0 0 35 60">
  <g id="Mouse" transform="translate(-1580 -1933)">
    <g id="Rectangle_18" data-name="Rectangle 18" transform="translate(1580 1933)" fill="rgba(255,255,255,0)" stroke="#000" stroke-width="2.5">
      <rect width="35" height="60" rx="17.5" stroke="none"/>
      <rect x="1.25" y="1.25" width="32.5" height="57.5" rx="16.25" fill="black"/>
    </g>
    <g id="Path_108" data-name="Path 108" transform="translate(1595.444 1940.128)" fill="none">
      <path d="M2.376,0A2.376,2.376,0,0,1,4.752,2.376V16.632a2.376,2.376,0,0,1-4.752,0V2.376A2.376,2.376,0,0,1,2.376,0Z" stroke="none"/>
      <path d="M 2.375942707061768 1 C 1.617242813110352 1 1.00000262260437 1.617240905761719 1.00000262260437 2.375940322875977 L 1.00000262260437 16.63160133361816 C 1.00000262260437 17.39030075073242 1.617242813110352 18.00754165649414 2.375942707061768 18.00754165649414 C 3.134642601013184 18.00754165649414 3.751882553100586 17.39030075073242 3.751882553100586 16.63160133361816 L 3.751882553100586 2.375940322875977 C 3.751882553100586 1.617240905761719 3.134642601013184 1 2.375942707061768 1 M 2.375942707061768 0 C 3.688142776489258 0 4.751882553100586 1.063741683959961 4.751882553100586 2.375940322875977 L 4.751882553100586 16.63160133361816 C 4.751882553100586 17.94379997253418 3.688142776489258 19.00754165649414 2.375942707061768 19.00754165649414 C 1.063742637634277 19.00754165649414 2.86102294921875e-06 17.94379997253418 2.86102294921875e-06 16.63160133361816 L 2.86102294921875e-06 2.375940322875977 C 2.86102294921875e-06 1.063741683959961 1.063742637634277 0 2.375942707061768 0 Z" stroke="none"/>
    </g>
  </g>
</svg>
